<svg width="249" height="107" viewBox="0 0 249 107" fill="none" xmlns="http://www.w3.org/2000/svg">
<path d="M108.15 71H88.25V66L100.55 42H88.85V36H108.15V41L95.8 65H108.15V71ZM129.912 44.05V64.55C130.112 65.7167 130.895 66.75 132.262 67.65L127.762 71.5C127.329 71.2 126.795 70.6667 126.162 69.9C125.529 69.1333 124.995 68.35 124.562 67.55C121.795 70.25 119.862 71.6 118.762 71.6C117.962 71.6 116.662 70.7167 114.862 68.95C113.095 67.1833 111.995 65.75 111.562 64.65C111.129 63.55 110.912 61.1833 110.912 57.55C110.912 53.8833 111.129 51.5 111.562 50.4C111.995 49.3 113.095 47.8667 114.862 46.1C116.662 44.3333 117.962 43.45 118.762 43.45C119.929 43.45 121.812 44.65 124.412 47.05L125.012 44.05H129.912ZM122.962 51.7C122.729 51.2667 122.245 50.8333 121.512 50.4C120.812 49.9333 120.279 49.7 119.912 49.7C119.545 49.7 119.145 49.9167 118.712 50.35C118.312 50.7833 118.045 51.1833 117.912 51.55C117.479 52.15 117.262 54.15 117.262 57.55C117.262 60.9167 117.479 62.9 117.912 63.5C118.045 63.8333 118.312 64.2333 118.712 64.7C119.145 65.1333 119.545 65.35 119.912 65.35C120.279 65.35 120.812 65.1333 121.512 64.7C122.245 64.2333 122.712 63.8167 122.912 63.45C123.145 63.0833 123.279 61.1333 123.312 57.6C123.312 54.0667 123.195 52.1 122.962 51.7ZM164.696 51.55V55.85C164.696 59.85 164.479 62.3333 164.046 63.3C163.646 64.2667 162.379 65.9 160.246 68.2C158.113 70.4667 156.546 71.6 155.546 71.6C154.346 71.6 152.396 69.7167 149.696 65.95C146.996 69.7167 145.046 71.6 143.846 71.6C142.846 71.6 141.263 70.45 139.096 68.15C136.963 65.85 135.696 64.1833 135.296 63.15C134.896 62.1167 134.696 59.6833 134.696 55.85V44.05H141.296V55.85C141.296 59.35 141.413 61.4167 141.646 62.05C141.879 62.6833 142.229 63.3167 142.696 63.95C143.163 64.55 143.546 64.85 143.846 64.85C144.146 64.85 144.513 64.55 144.946 63.95C145.413 63.3167 145.763 62.7 145.996 62.1C146.263 61.5 146.396 60.0167 146.396 57.65V44.05H152.996V55.85C152.996 59.35 153.113 61.4167 153.346 62.05C153.579 62.6833 153.929 63.3167 154.396 63.95C154.863 64.55 155.246 64.85 155.546 64.85C155.846 64.85 156.213 64.55 156.646 63.95C157.113 63.3167 157.463 62.7 157.696 62.1C157.963 61.5 158.096 59.4167 158.096 55.85V53.7C158.096 50.8333 157.429 48.7 156.096 47.3L161.096 43.45C163.496 45.35 164.696 48.05 164.696 51.55ZM186.895 44.05V64.55C187.095 65.7167 187.878 66.75 189.245 67.65L184.745 71.5C184.311 71.2 183.778 70.6667 183.145 69.9C182.511 69.1333 181.978 68.35 181.545 67.55C178.778 70.25 176.845 71.6 175.745 71.6C174.945 71.6 173.645 70.7167 171.845 68.95C170.078 67.1833 168.978 65.75 168.545 64.65C168.111 63.55 167.895 61.1833 167.895 57.55C167.895 53.8833 168.111 51.5 168.545 50.4C168.978 49.3 170.078 47.8667 171.845 46.1C173.645 44.3333 174.945 43.45 175.745 43.45C176.911 43.45 178.795 44.65 181.395 47.05L181.995 44.05H186.895ZM179.945 51.7C179.711 51.2667 179.228 50.8333 178.495 50.4C177.795 49.9333 177.261 49.7 176.895 49.7C176.528 49.7 176.128 49.9167 175.695 50.35C175.295 50.7833 175.028 51.1833 174.895 51.55C174.461 52.15 174.245 54.15 174.245 57.55C174.245 60.9167 174.461 62.9 174.895 63.5C175.028 63.8333 175.295 64.2333 175.695 64.7C176.128 65.1333 176.528 65.35 176.895 65.35C177.261 65.35 177.795 65.1333 178.495 64.7C179.228 64.2333 179.695 63.8167 179.895 63.45C180.128 63.0833 180.261 61.1333 180.295 57.6C180.295 54.0667 180.178 52.1 179.945 51.7ZM192.029 50.05C192.295 49.2167 193.329 47.9167 195.129 46.15C196.962 44.35 198.312 43.45 199.179 43.45C200.045 43.45 201.529 44.35 203.629 46.15V43.7C203.629 42 203.429 40.7 203.029 39.8C202.629 38.9 201.995 38.0833 201.129 37.35L206.629 33.5C209.029 35.4 210.229 38.0833 210.229 41.55V71H205.129L204.529 68.05C202.095 70.4167 200.279 71.6 199.079 71.6C198.279 71.6 196.962 70.7167 195.129 68.95C193.329 67.15 192.295 65.8333 192.029 65C191.662 64.1667 191.479 61.6833 191.479 57.55C191.479 53.3833 191.662 50.8833 192.029 50.05ZM203.279 51.7C203.045 51.2667 202.562 50.8333 201.829 50.4C201.129 49.9333 200.595 49.7 200.229 49.7C199.862 49.7 199.462 49.9167 199.029 50.35C198.629 50.7833 198.329 51.2333 198.129 51.7C197.929 52.1667 197.829 54.1167 197.829 57.55C197.829 60.95 197.929 62.8833 198.129 63.35C198.329 63.7833 198.629 64.2333 199.029 64.7C199.462 65.1333 199.845 65.35 200.179 65.35C200.545 65.35 201.079 65.1333 201.779 64.7C202.512 64.2333 202.995 63.8333 203.229 63.5C203.429 63.0333 203.562 61.6833 203.629 59.45V57.6C203.629 54.0667 203.512 52.1 203.279 51.7ZM226.757 44.05H233.357V69.35C233.357 73.3167 233.107 75.7833 232.607 76.75C232.107 77.7167 230.79 79.0833 228.657 80.85C226.557 82.6167 224.957 83.5 223.857 83.5C222.757 83.5 221.34 82.9167 219.607 81.75C217.874 80.6167 216.574 79.3 215.707 77.8L220.857 74.25L221.407 74.9C222.607 76.4667 223.424 77.25 223.857 77.25C224.324 77.25 224.807 77.0333 225.307 76.6C225.84 76.1667 226.207 75.7333 226.407 75.3C226.64 74.8667 226.757 73.3 226.757 70.6V67.9C224.89 69.7 223.49 70.6 222.557 70.6C221.657 70.6 220.157 69.6833 218.057 67.85C215.99 65.9833 214.957 64.15 214.957 62.35V53.7C214.957 52 214.757 50.6833 214.357 49.75C213.957 48.8167 213.324 48 212.457 47.3L217.957 43.45C220.357 45.35 221.557 48.05 221.557 51.55V61.65C221.557 62.2167 221.874 62.8167 222.507 63.45C223.14 64.05 223.69 64.35 224.157 64.35C224.624 64.35 225.49 63.6667 226.757 62.3V44.05Z" fill="white"/>
<path d="M70 57.8689C67.3077 59.4487 64.4359 60.8705 61.7436 62.2923C52.9487 66.8737 44.3333 71.297 35.5385 75.8784C35.359 75.8784 35.359 76.0364 35.1795 76.0364C35 76.0364 35 75.8784 35 75.8784V75.4045V44.5987V44.1248C35 43.9668 35.1795 43.9668 35.359 43.9668C36.0769 44.2828 36.7949 44.5987 37.6923 44.9147C39.8462 45.8626 42.1795 46.6525 44.3333 47.6003C46.3077 48.3902 48.1026 49.1801 50.0769 49.812C52.0513 50.6019 53.8462 51.3918 55.8205 52.1817C57.4359 52.8136 59.2308 53.4455 60.8462 54.2354C62.4615 54.8673 64.2564 55.4992 65.8718 56.2891C67.1282 56.7631 68.3846 57.395 69.8205 57.8689C69.8205 57.7109 69.8205 57.8689 70 57.8689V57.8689Z" fill="#070C2C"/>
<path d="M35.1794 107C35.1794 107 35 107 35.1794 107C35 107 35 107 34.8205 106.842C31.2307 102.419 27.8205 98.1533 24.2307 93.7299L13.4615 80.4598C10.0512 76.1944 6.46149 71.929 3.05124 67.5056L0.35893 64.1881C0.35893 64.0301 0.179443 64.0301 0.179443 63.8721C0.358931 63.8721 0.358931 64.0301 0.538418 64.0301C5.38457 66.5577 10.4102 69.0854 15.2564 71.613C20.8205 74.6146 26.5641 77.4582 32.1282 80.4598C33.0256 80.9337 34.1025 81.4076 35 81.8816C35.1794 81.8816 35.1794 82.0396 35.1794 82.1975V107Z" fill="#8C7CF0"/>
<path d="M0.179443 57.8689C0.179443 57.8689 0.358931 57.8689 0.179443 57.8689C0.358931 57.8689 0.358931 57.8689 0.179443 57.8689C0.179443 58.0269 0.179443 58.0269 0.179443 57.8689Z" fill="#808080"/>
<path d="M0.358887 58.0268C0.358887 57.8689 0.358887 57.8689 0.358887 58.0268C2.15376 57.2369 3.94863 56.605 5.74351 55.8151L12.7435 52.9715C14.5384 52.1816 16.3333 51.5497 18.1281 50.7598C20.6409 49.654 23.3333 48.7061 25.8461 47.6003C27.641 46.9684 29.4358 46.1785 31.2307 45.5466C32.4871 45.0726 33.7435 44.5987 34.9999 43.9668C35.1794 43.9668 35.1794 43.8088 35.3589 43.8088V76.0363C35.1794 76.1943 35.1794 76.0363 34.9999 76.0363C34.4615 75.7204 33.923 75.5624 33.564 75.2464L0.717861 58.1848C0.538374 58.0268 0.358887 58.0268 0.358887 58.0268ZM69.8205 63.872C69.8205 64.03 69.8205 64.03 69.641 64.188C59.2307 77.1422 48.8204 89.9384 38.4102 102.893C37.3333 104.314 36.2563 105.578 35.1794 107V106.842V106.526V82.3554V81.8815C37.5128 80.6177 39.8461 79.3539 42.1794 78.248L69.641 64.03C69.641 63.872 69.8205 63.872 69.8205 63.872Z" fill="#3A3D4F"/>
<path d="M35.1795 0V36.8089C35.1795 36.9669 35 37.1248 34.8205 37.1248C33.5641 37.5988 32.4872 38.0727 31.2308 38.5466C29.6154 39.1786 27.8205 39.8105 26.2051 40.6004L20.282 42.97L15.4359 44.8658L9.51282 47.2354C7.89743 47.8673 6.28205 48.4993 4.48718 49.2891C3.23077 49.7631 1.79487 50.395 0.538461 50.8689C0.358974 50.8689 0.358974 51.0269 0.179487 50.8689H0C0.538461 50.079 1.07692 49.4471 1.61538 48.6572C4.48718 44.3918 7.53846 40.1264 10.4103 35.861C13.4615 31.2796 16.6923 26.6983 19.7436 22.1169C22.6154 17.8515 25.4872 13.5861 28.359 9.47868C30.5128 6.31912 32.6667 3.31754 34.641 0.157978C35 0.157978 35 0 35.1795 0C35 0 35.1795 0 35.1795 0V0Z" fill="#8C7CF0"/>
<path d="M35.1794 36.9669V36.6509V0.473933V0.157977L69.641 50.395C69.8205 50.553 70 50.711 70 50.8689C69.282 50.553 68.5641 50.237 67.6666 49.9211C66.7692 49.6051 65.8718 49.1312 64.9743 48.8152C64.4359 48.6572 63.8974 48.3413 63.1795 48.1833C62.282 47.8673 61.2051 47.3934 60.3077 47.0775C59.7692 46.9195 59.2307 46.6035 58.6923 46.4455L54.923 45.0237C54.2051 44.7078 53.6666 44.5498 52.9487 44.2339C52.0512 43.9179 51.1538 43.444 50.2564 43.128C49.7179 42.97 49.1794 42.6541 48.641 42.4961L44.8718 41.0743C44.1538 40.7583 43.6153 40.6004 42.8974 40.2844C42 39.9684 41.1025 39.4945 40.2051 39.1786C39.6666 38.8626 38.9487 38.7046 38.4102 38.3887L35.1794 36.9669V36.9669Z" fill="#3A3D4F"/>
</svg>
