<svg width="100" height="102" viewBox="0 0 100 102" fill="none" xmlns="http://www.w3.org/2000/svg">
<path d="M54.9183 3.29248L55.8139 2.36914L55.7393 79.8454L54.5078 79.4677L52.3061 78.3764L49.8058 76.4458L48.1638 74.767L46.8577 72.8364L45.9247 71.1157L43.5737 66.0373L42.5661 63.4352L41.7451 61.2528L40.4017 56.4682L40.0658 55.0832L39.7299 53.6143L39.3941 51.4318L38.9836 49.0815L38.7597 46.7732V44.0871V41.443V38.4212L38.8716 37.0362L38.9836 35.8191L39.1329 34.6859L39.3941 33.3009L39.9165 30.6568L40.2524 29.2718L40.6629 27.8028L41.1853 26.124L41.7078 24.5292L42.3049 22.8504L42.7527 21.8431L43.2751 20.5001L43.7976 19.4089L44.3947 18.1078L44.8425 17.2684L45.3649 16.2611L45.962 15.2119L46.4845 14.3725L47.1562 13.1973L48.3877 11.3507L49.3206 9.88173L50.3282 8.5387L51.4851 7.06976L53.4256 4.88733L54.172 4.04793L54.9183 3.29248Z" fill="#8C7CF0" fill-opacity="0.3" stroke="white"/>
<path d="M32.2225 3.3081L32.5815 1.99918L66.3851 69.4286L65.1714 69.7956L62.8196 70.09L59.8466 69.8228L57.7146 69.29L55.7585 68.3484L54.2119 67.3787L49.99 64.2894L47.9946 62.5952L46.3415 61.1606L43.1061 57.7578L42.2147 56.7429L41.2866 55.6549L40.0466 53.9463L38.6696 52.1339L37.4699 50.2526L36.2958 47.9163L35.14 45.6166L33.819 42.9882L33.3089 41.7203L32.8722 40.5985L32.504 39.5286L32.121 38.1764L31.4101 35.5815L31.0906 34.1872L30.7981 32.6777L30.5091 30.9225L30.2568 29.2402L30.0314 27.4428L29.9724 26.3138L29.8302 24.8506L29.798 23.6064L29.7377 22.1376L29.7521 21.1546L29.7567 19.9834L29.8065 18.7336L29.8844 17.7084L29.9427 16.3069L30.1841 14.0052L30.3364 12.2007L30.6073 10.4635L30.9502 8.53249L31.6486 5.5383L31.9172 4.3867L32.2225 3.3081Z" fill="#8C7CF0" fill-opacity="0.4" stroke="white"/>
<path d="M13.5855 17.0448L13.4193 15.6858L69.1899 59.8443L68.2318 60.7755L66.219 62.2038L63.4353 63.4322L61.3112 64.0051L59.1928 64.1221L57.4334 64.0112L52.4653 63.3094L50.0294 62.7664L47.9999 62.2886L43.8047 60.8163L42.6199 60.3407L41.3746 59.8174L39.6153 58.888L37.6935 57.9326L35.9059 56.8274L33.9709 55.2988L32.0661 53.7942L29.8893 52.0746L28.9539 51.1822L28.1395 50.3854L27.4064 49.6016L26.5542 48.5703L24.9405 46.5794L24.1299 45.4786L23.3004 44.2607L22.3821 42.8191L21.5242 41.4252L20.6475 39.9142L20.1714 38.9242L19.4949 37.6736L18.9999 36.5664L18.3953 35.2703L18.0401 34.3758L17.6056 33.3164L17.1823 32.1636L16.8687 31.1997L16.3964 29.9057L15.7522 27.7087L15.2137 26.0044L14.8076 24.3024L14.3939 22.3898L13.9028 19.3417L13.7139 18.1694L13.5855 17.0448Z" fill="#8C7CF0" fill-opacity="0.5" stroke="white"/>
<path d="M3.5867 39.9453L2.94678 38.7864L69.6141 52.5436L69.0762 53.8463L67.7566 56.102L65.663 58.5414L63.9344 60.071L62.0472 61.1826L60.405 61.9163L55.628 63.6342L53.2144 64.2953L51.1942 64.823L46.8443 65.4724L45.5942 65.6014L44.2719 65.7156L42.3356 65.7039L40.2419 65.7456L38.2165 65.5871L35.9047 65.113L33.6291 64.6464L31.0283 64.113L29.8557 63.7441L28.8275 63.4048L27.878 63.0388L26.7311 62.5039L24.5458 61.4563L23.4118 60.8384L22.2185 60.1226L20.8639 59.2454L19.5815 58.383L18.2398 57.4227L17.4503 56.747L16.3847 55.929L15.5358 55.1555L14.5192 54.2619L13.8742 53.6158L13.0975 52.8571L12.2976 52.008L11.6655 51.2789L10.7702 50.3246L9.3936 48.6293L8.29055 47.3326L7.30876 45.9752L6.2444 44.4296L4.70139 41.8866L4.10792 40.9085L3.5867 39.9453Z" fill="#8C7CF0" fill-opacity="0.6" stroke="white"/>
<path d="M5.49025 65.7034L4.48146 64.9683L69.8957 44.7771L69.8923 46.2189L69.5353 48.9055L68.5462 52.1373L67.5498 54.3672L66.2548 56.2967L65.0414 57.7644L61.3572 61.6571L59.4189 63.4367L57.7871 64.9031L54.0928 67.6201L53.0098 68.3488L51.8559 69.0994L50.0998 70.0367L48.2212 71.0994L46.3301 71.9476L44.0629 72.6504L41.8311 73.3423L39.2805 74.133L38.0828 74.3733L37.0268 74.5697L36.0321 74.7034L34.7961 74.7809L32.4305 74.903L31.1754 74.8992L29.8304 74.8359L28.2795 74.7054L26.7995 74.553L25.2296 74.3411L24.2647 74.1163L22.9972 73.898L21.9423 73.6138L20.6912 73.3031L19.868 73.0344L18.8839 72.7282L17.8453 72.3516L17.003 72.0015L15.839 71.5765L13.9648 70.7167L12.486 70.0837L11.0942 69.3363L9.55801 68.4591L7.21879 66.9139L6.3191 66.3197L5.49025 65.7034Z" fill="#8C7CF0" fill-opacity="0.7" stroke="white"/>
<path d="M16.5209 87.3468L15.3376 87.1586L67.5701 37.6181L68.0876 38.9316L68.7327 41.5464L68.9995 44.9583L68.898 47.4621L68.4163 49.8349L67.842 51.7485L65.895 57.046L64.7739 59.5889L63.8185 61.7007L61.4378 65.9332L60.7155 67.1123L59.9366 68.3451L58.6771 70.0347L57.3513 71.8968L55.9368 73.5696L54.1275 75.2894L52.3465 76.9823L50.3111 78.9171L49.3081 79.7064L48.4181 80.3883L47.5612 80.9839L46.4646 81.6433L44.3561 82.8816L43.2127 83.4761L41.9659 84.0594L40.5077 84.6796L39.1059 85.2461L37.6009 85.8013L36.6417 86.0565L35.4096 86.4618L34.3471 86.7058L33.0965 87.0192L32.2504 87.1669L31.2444 87.3572L30.1634 87.5094L29.2706 87.5922L28.058 87.76L26.0422 87.8707L24.468 87.9993L22.9318 87.9823L21.2172 87.9161L18.5308 87.6247L17.4976 87.5126L16.5209 87.3468Z" fill="#8C7CF0" fill-opacity="0.8" stroke="white"/>
<path fill-rule="evenodd" clip-rule="evenodd" d="M67.7259 37.1499C66.2816 37.3575 64.9405 37.8188 63.7277 38.5247C62.2996 39.356 61.3917 40.1326 60.1831 41.5569C58.7741 43.2173 57.9007 44.7407 56.8904 47.3002C56.2594 48.8985 56.2262 48.9624 56.0316 48.9495C55.9204 48.9422 55.1525 48.803 54.3254 48.6402C52.7897 48.3379 50.0463 47.8058 44.3122 46.6981C42.537 46.3552 40.7462 46.0091 40.3326 45.9289C39.4414 45.7565 39.5183 45.5613 39.7285 47.4603C39.9242 49.2292 40.1924 50.948 40.5018 52.4158C40.6407 53.0753 40.7544 53.6234 40.7544 53.6338C40.7544 53.6659 40.2817 53.8136 38.3339 54.3907C37.3052 54.6954 36.4517 54.9582 36.4373 54.9746C36.3236 55.104 39.2688 60.4235 40.6483 62.5805L40.9755 63.0923L39.8224 64.1665C39.1882 64.7574 38.6185 65.2855 38.5565 65.34C38.4567 65.4278 38.4605 65.4541 38.5904 65.5694C38.819 65.7722 41.2049 67.5782 41.4513 67.735C41.5723 67.812 41.9189 68.0491 42.2215 68.2619C43.2076 68.9555 44.7989 69.9448 46.1092 70.6789C46.8154 71.0746 47.4031 71.4077 47.4152 71.4192C47.4393 71.4424 46.1867 74.669 41.3231 87.1117C37.8047 96.1128 37.9204 95.81 37.9739 95.8708C38.0345 95.9397 39.8172 95.3878 41.1952 94.8734C48.3935 92.1865 55.5308 87.5782 61.4411 81.8015C65.8052 77.5359 69.0543 69.8105 70.1688 61.049C70.2519 60.3964 70.3847 59.0253 70.464 58.0021C70.7281 54.5941 71.1905 52.42 72.1851 49.9098C72.9042 48.0952 73.7238 46.722 74.8657 45.4183C75.986 44.1393 77.3518 43.1431 78.7929 42.5539C80.0766 42.0291 82.237 41.678 83.5582 41.7796C93.3505 42.5324 99.3291 42.9949 99.6072 43.0209C99.9915 43.0569 100.149 42.953 99.8257 42.8766C99.7144 42.8504 98.3854 42.5863 96.8724 42.2898C93.4094 41.6113 86.6953 40.2913 83.6682 39.694C69.6374 36.9251 70.8267 37.1413 69.437 37.1074C68.7712 37.0911 68.0013 37.1102 67.7259 37.1499Z" fill="white"/>
</svg>
