<svg width="228" height="107" viewBox="0 0 228 107" fill="none" xmlns="http://www.w3.org/2000/svg">
<path d="M107.15 71H87.25V66L99.55 42H87.85V36H107.15V41L94.8 65H107.15V71ZM128.912 44.05V64.55C129.112 65.7167 129.895 66.75 131.262 67.65L126.762 71.5C126.329 71.2 125.795 70.6667 125.162 69.9C124.529 69.1333 123.995 68.35 123.562 67.55C120.795 70.25 118.862 71.6 117.762 71.6C116.962 71.6 115.662 70.7167 113.862 68.95C112.095 67.1833 110.995 65.75 110.562 64.65C110.129 63.55 109.912 61.1833 109.912 57.55C109.912 53.8833 110.129 51.5 110.562 50.4C110.995 49.3 112.095 47.8667 113.862 46.1C115.662 44.3333 116.962 43.45 117.762 43.45C118.929 43.45 120.812 44.65 123.412 47.05L124.012 44.05H128.912ZM121.962 51.7C121.729 51.2667 121.245 50.8333 120.512 50.4C119.812 49.9333 119.279 49.7 118.912 49.7C118.545 49.7 118.145 49.9167 117.712 50.35C117.312 50.7833 117.045 51.1833 116.912 51.55C116.479 52.15 116.262 54.15 116.262 57.55C116.262 60.9167 116.479 62.9 116.912 63.5C117.045 63.8333 117.312 64.2333 117.712 64.7C118.145 65.1333 118.545 65.35 118.912 65.35C119.279 65.35 119.812 65.1333 120.512 64.7C121.245 64.2333 121.712 63.8167 121.912 63.45C122.145 63.0833 122.279 61.1333 122.312 57.6C122.312 54.0667 122.195 52.1 121.962 51.7ZM163.696 51.55V55.85C163.696 59.85 163.479 62.3333 163.046 63.3C162.646 64.2667 161.379 65.9 159.246 68.2C157.113 70.4667 155.546 71.6 154.546 71.6C153.346 71.6 151.396 69.7167 148.696 65.95C145.996 69.7167 144.046 71.6 142.846 71.6C141.846 71.6 140.263 70.45 138.096 68.15C135.963 65.85 134.696 64.1833 134.296 63.15C133.896 62.1167 133.696 59.6833 133.696 55.85V44.05H140.296V55.85C140.296 59.35 140.413 61.4167 140.646 62.05C140.879 62.6833 141.229 63.3167 141.696 63.95C142.163 64.55 142.546 64.85 142.846 64.85C143.146 64.85 143.513 64.55 143.946 63.95C144.413 63.3167 144.763 62.7 144.996 62.1C145.263 61.5 145.396 60.0167 145.396 57.65V44.05H151.996V55.85C151.996 59.35 152.113 61.4167 152.346 62.05C152.579 62.6833 152.929 63.3167 153.396 63.95C153.863 64.55 154.246 64.85 154.546 64.85C154.846 64.85 155.213 64.55 155.646 63.95C156.113 63.3167 156.463 62.7 156.696 62.1C156.963 61.5 157.096 59.4167 157.096 55.85V53.7C157.096 50.8333 156.429 48.7 155.096 47.3L160.096 43.45C162.496 45.35 163.696 48.05 163.696 51.55ZM185.895 44.05V64.55C186.095 65.7167 186.878 66.75 188.245 67.65L183.745 71.5C183.311 71.2 182.778 70.6667 182.145 69.9C181.511 69.1333 180.978 68.35 180.545 67.55C177.778 70.25 175.845 71.6 174.745 71.6C173.945 71.6 172.645 70.7167 170.845 68.95C169.078 67.1833 167.978 65.75 167.545 64.65C167.111 63.55 166.895 61.1833 166.895 57.55C166.895 53.8833 167.111 51.5 167.545 50.4C167.978 49.3 169.078 47.8667 170.845 46.1C172.645 44.3333 173.945 43.45 174.745 43.45C175.911 43.45 177.795 44.65 180.395 47.05L180.995 44.05H185.895ZM178.945 51.7C178.711 51.2667 178.228 50.8333 177.495 50.4C176.795 49.9333 176.261 49.7 175.895 49.7C175.528 49.7 175.128 49.9167 174.695 50.35C174.295 50.7833 174.028 51.1833 173.895 51.55C173.461 52.15 173.245 54.15 173.245 57.55C173.245 60.9167 173.461 62.9 173.895 63.5C174.028 63.8333 174.295 64.2333 174.695 64.7C175.128 65.1333 175.528 65.35 175.895 65.35C176.261 65.35 176.795 65.1333 177.495 64.7C178.228 64.2333 178.695 63.8167 178.895 63.45C179.128 63.0833 179.261 61.1333 179.295 57.6C179.295 54.0667 179.178 52.1 178.945 51.7ZM191.029 50.05C191.295 49.2167 192.329 47.9167 194.129 46.15C195.962 44.35 197.312 43.45 198.179 43.45C199.045 43.45 200.529 44.35 202.629 46.15V43.7C202.629 42 202.429 40.7 202.029 39.8C201.629 38.9 200.995 38.0833 200.129 37.35L205.629 33.5C208.029 35.4 209.229 38.0833 209.229 41.55V71H204.129L203.529 68.05C201.095 70.4167 199.279 71.6 198.079 71.6C197.279 71.6 195.962 70.7167 194.129 68.95C192.329 67.15 191.295 65.8333 191.029 65C190.662 64.1667 190.479 61.6833 190.479 57.55C190.479 53.3833 190.662 50.8833 191.029 50.05ZM202.279 51.7C202.045 51.2667 201.562 50.8333 200.829 50.4C200.129 49.9333 199.595 49.7 199.229 49.7C198.862 49.7 198.462 49.9167 198.029 50.35C197.629 50.7833 197.329 51.2333 197.129 51.7C196.929 52.1667 196.829 54.1167 196.829 57.55C196.829 60.95 196.929 62.8833 197.129 63.35C197.329 63.7833 197.629 64.2333 198.029 64.7C198.462 65.1333 198.845 65.35 199.179 65.35C199.545 65.35 200.079 65.1333 200.779 64.7C201.512 64.2333 201.995 63.8333 202.229 63.5C202.429 63.0333 202.562 61.6833 202.629 59.45V57.6C202.629 54.0667 202.512 52.1 202.279 51.7ZM212.707 44.05H219.307V61.35C219.307 63.05 219.507 64.3667 219.907 65.3C220.307 66.2333 220.94 67.05 221.807 67.75L216.307 71.6C213.907 69.7 212.707 67 212.707 63.5V44.05ZM216.107 33.6C216.474 33.6 217.29 34.15 218.557 35.25C219.824 36.3167 220.457 37.05 220.457 37.45C220.457 37.8167 219.807 38.55 218.507 39.65C217.24 40.75 216.424 41.3 216.057 41.3C215.724 41.3 214.924 40.7667 213.657 39.7C212.39 38.6 211.757 37.8667 211.757 37.5C211.757 37.1 212.39 36.35 213.657 35.25C214.957 34.15 215.774 33.6 216.107 33.6Z" fill="white"/>
<path d="M70 57.8689C67.3077 59.4487 64.4359 60.8705 61.7436 62.2923C52.9487 66.8737 44.3333 71.297 35.5385 75.8784C35.359 75.8784 35.359 76.0364 35.1795 76.0364C35 76.0364 35 75.8784 35 75.8784V75.4045V44.5987V44.1248C35 43.9668 35.1795 43.9668 35.359 43.9668C36.0769 44.2828 36.7949 44.5987 37.6923 44.9147C39.8462 45.8626 42.1795 46.6525 44.3333 47.6003C46.3077 48.3902 48.1026 49.1801 50.0769 49.812C52.0513 50.6019 53.8462 51.3918 55.8205 52.1817C57.4359 52.8136 59.2308 53.4455 60.8462 54.2354C62.4615 54.8673 64.2564 55.4992 65.8718 56.2891C67.1282 56.7631 68.3846 57.395 69.8205 57.8689C69.8205 57.7109 69.8205 57.8689 70 57.8689V57.8689Z" fill="#070C2C"/>
<path d="M35.1794 107C35.1794 107 35 107 35.1794 107C35 107 35 107 34.8205 106.842C31.2307 102.419 27.8205 98.1533 24.2307 93.7299L13.4615 80.4598C10.0512 76.1944 6.46149 71.929 3.05124 67.5056L0.35893 64.1881C0.35893 64.0301 0.179443 64.0301 0.179443 63.8721C0.358931 63.8721 0.358931 64.0301 0.538418 64.0301C5.38457 66.5577 10.4102 69.0854 15.2564 71.613C20.8205 74.6146 26.5641 77.4582 32.1282 80.4598C33.0256 80.9337 34.1025 81.4076 35 81.8816C35.1794 81.8816 35.1794 82.0396 35.1794 82.1975V107Z" fill="#8C7CF0"/>
<path d="M0.179443 57.8689C0.179443 57.8689 0.358931 57.8689 0.179443 57.8689C0.358931 57.8689 0.358931 57.8689 0.179443 57.8689C0.179443 58.0269 0.179443 58.0269 0.179443 57.8689Z" fill="#808080"/>
<path d="M0.358887 58.0268C0.358887 57.8689 0.358887 57.8689 0.358887 58.0268C2.15376 57.2369 3.94863 56.605 5.74351 55.8151L12.7435 52.9715C14.5384 52.1816 16.3333 51.5497 18.1281 50.7598C20.6409 49.654 23.3333 48.7061 25.8461 47.6003C27.641 46.9684 29.4358 46.1785 31.2307 45.5466C32.4871 45.0726 33.7435 44.5987 34.9999 43.9668C35.1794 43.9668 35.1794 43.8088 35.3589 43.8088V76.0363C35.1794 76.1943 35.1794 76.0363 34.9999 76.0363C34.4615 75.7204 33.923 75.5624 33.564 75.2464L0.717861 58.1848C0.538374 58.0268 0.358887 58.0268 0.358887 58.0268ZM69.8205 63.872C69.8205 64.03 69.8205 64.03 69.641 64.188C59.2307 77.1422 48.8204 89.9384 38.4102 102.893C37.3333 104.314 36.2563 105.578 35.1794 107V106.842V106.526V82.3554V81.8815C37.5128 80.6177 39.8461 79.3539 42.1794 78.248L69.641 64.03C69.641 63.872 69.8205 63.872 69.8205 63.872Z" fill="#3A3D4F"/>
<path d="M35.1795 0V36.8089C35.1795 36.9669 35 37.1248 34.8205 37.1248C33.5641 37.5988 32.4872 38.0727 31.2308 38.5466C29.6154 39.1786 27.8205 39.8105 26.2051 40.6004L20.282 42.97L15.4359 44.8658L9.51282 47.2354C7.89743 47.8673 6.28205 48.4993 4.48718 49.2891C3.23077 49.7631 1.79487 50.395 0.538461 50.8689C0.358974 50.8689 0.358974 51.0269 0.179487 50.8689H0C0.538461 50.079 1.07692 49.4471 1.61538 48.6572C4.48718 44.3918 7.53846 40.1264 10.4103 35.861C13.4615 31.2796 16.6923 26.6983 19.7436 22.1169C22.6154 17.8515 25.4872 13.5861 28.359 9.47868C30.5128 6.31912 32.6667 3.31754 34.641 0.157978C35 0.157978 35 0 35.1795 0C35 0 35.1795 0 35.1795 0V0Z" fill="#8C7CF0"/>
<path d="M35.1794 36.9669V36.6509V0.473933V0.157977L69.641 50.395C69.8205 50.553 70 50.711 70 50.8689C69.282 50.553 68.5641 50.237 67.6666 49.9211C66.7692 49.6051 65.8718 49.1312 64.9743 48.8152C64.4359 48.6572 63.8974 48.3413 63.1795 48.1833C62.282 47.8673 61.2051 47.3934 60.3077 47.0775C59.7692 46.9195 59.2307 46.6035 58.6923 46.4455L54.923 45.0237C54.2051 44.7078 53.6666 44.5498 52.9487 44.2339C52.0512 43.9179 51.1538 43.444 50.2564 43.128C49.7179 42.97 49.1794 42.6541 48.641 42.4961L44.8718 41.0743C44.1538 40.7583 43.6153 40.6004 42.8974 40.2844C42 39.9684 41.1025 39.4945 40.2051 39.1786C39.6666 38.8626 38.9487 38.7046 38.4102 38.3887L35.1794 36.9669V36.9669Z" fill="#3A3D4F"/>
</svg>
