<svg width="70" height="107" viewBox="0 0 70 107" fill="none" xmlns="http://www.w3.org/2000/svg">
<path d="M70 57.8689C67.3077 59.4487 64.4359 60.8705 61.7436 62.2923C52.9487 66.8736 44.3333 71.297 35.5385 75.8784C35.359 75.8784 35.359 76.0364 35.1795 76.0364C35 76.0364 35 75.8784 35 75.8784V75.4045V44.5987V44.1248C35 43.9668 35.1795 43.9668 35.359 43.9668C36.0769 44.2828 36.7949 44.5987 37.6923 44.9147C39.8462 45.8626 42.1795 46.6525 44.3333 47.6003C46.3077 48.3902 48.1026 49.1801 50.0769 49.812C52.0513 50.6019 53.8462 51.3918 55.8205 52.1817C57.4359 52.8136 59.2308 53.4455 60.8462 54.2354C62.4615 54.8673 64.2564 55.4992 65.8718 56.2891C67.1282 56.763 68.3846 57.395 69.8205 57.8689C69.8205 57.7109 69.8205 57.8689 70 57.8689V57.8689Z" fill="#070C2C"/>
<path d="M35.1794 107C35.1794 107 35 107 35.1794 107C35 107 35 107 34.8205 106.842C31.2307 102.419 27.8205 98.1533 24.2307 93.7299L13.4615 80.4598C10.0512 76.1944 6.46149 71.929 3.05124 67.5056L0.35893 64.1881C0.35893 64.0301 0.179443 64.0301 0.179443 63.8721C0.358931 63.8721 0.358931 64.0301 0.538418 64.0301C5.38457 66.5577 10.4102 69.0854 15.2564 71.613C20.8205 74.6146 26.5641 77.4582 32.1282 80.4598C33.0256 80.9337 34.1025 81.4076 35 81.8816C35.1794 81.8816 35.1794 82.0396 35.1794 82.1975V107Z" fill="#8C7CF0"/>
<path d="M0.179443 57.8689C0.179443 57.8689 0.358931 57.8689 0.179443 57.8689C0.358931 57.8689 0.358931 57.8689 0.179443 57.8689C0.179443 58.0269 0.179443 58.0269 0.179443 57.8689Z" fill="#808080"/>
<path d="M0.358887 58.0268C0.358887 57.8688 0.358887 57.8688 0.358887 58.0268C2.15376 57.2369 3.94863 56.605 5.74351 55.8151L12.7435 52.9715C14.5384 52.1816 16.3333 51.5497 18.1281 50.7598C20.6409 49.654 23.3333 48.7061 25.8461 47.6003C27.641 46.9684 29.4358 46.1785 31.2307 45.5466C32.4871 45.0726 33.7435 44.5987 34.9999 43.9668C35.1794 43.9668 35.1794 43.8088 35.3589 43.8088V76.0363C35.1794 76.1943 35.1794 76.0363 34.9999 76.0363C34.4615 75.7204 33.923 75.5624 33.564 75.2464L0.717861 58.1848C0.538374 58.0268 0.358887 58.0268 0.358887 58.0268ZM69.8205 63.872C69.8205 64.03 69.8205 64.03 69.641 64.188C59.2307 77.1422 48.8204 89.9384 38.4102 102.893C37.3333 104.314 36.2563 105.578 35.1794 107V106.842V106.526V82.3554V81.8815C37.5128 80.6177 39.8461 79.3539 42.1794 78.248L69.641 64.03C69.641 63.872 69.8205 63.872 69.8205 63.872Z" fill="#3A3D4F"/>
<path d="M35.1795 0V36.8089C35.1795 36.9669 35 37.1248 34.8205 37.1248C33.5641 37.5988 32.4872 38.0727 31.2308 38.5466C29.6154 39.1786 27.8205 39.8105 26.2051 40.6004L20.282 42.97L15.4359 44.8658L9.51282 47.2354C7.89743 47.8673 6.28205 48.4993 4.48718 49.2891C3.23077 49.7631 1.79487 50.395 0.538461 50.8689C0.358974 50.8689 0.358974 51.0269 0.179487 50.8689H0C0.538461 50.079 1.07692 49.4471 1.61538 48.6572C4.48718 44.3918 7.53846 40.1264 10.4103 35.861C13.4615 31.2796 16.6923 26.6983 19.7436 22.1169C22.6154 17.8515 25.4872 13.5861 28.359 9.47868C30.5128 6.31912 32.6667 3.31754 34.641 0.157978C35 0.157978 35 0 35.1795 0C35 0 35.1795 0 35.1795 0V0Z" fill="#8C7CF0"/>
<path d="M35.1794 36.9669V36.6509V0.47393V0.157974L69.641 50.395C69.8205 50.553 70 50.711 70 50.8689C69.282 50.553 68.5641 50.237 67.6666 49.9211C66.7692 49.6051 65.8718 49.1312 64.9743 48.8152C64.4359 48.6572 63.8974 48.3413 63.1795 48.1833C62.282 47.8673 61.2051 47.3934 60.3077 47.0775C59.7692 46.9195 59.2307 46.6035 58.6923 46.4455L54.923 45.0237C54.2051 44.7078 53.6666 44.5498 52.9487 44.2339C52.0512 43.9179 51.1538 43.444 50.2564 43.128C49.7179 42.97 49.1794 42.6541 48.641 42.4961L44.8718 41.0743C44.1538 40.7583 43.6153 40.6004 42.8974 40.2844C42 39.9684 41.1025 39.4945 40.2051 39.1786C39.6666 38.8626 38.9487 38.7046 38.4102 38.3887L35.1794 36.9669V36.9669Z" fill="#3A3D4F"/>
</svg>
